# xmcd
#
# Track frame offsets:
#	150
#	14313
#	29088
#	38013
#	46113
#	58563
#	69963
#	78513
#	87063
#	103188
#	113988
#	125538
#	137238
#	149463
#	159438
#	171513
#	182088
#	195663
#	207813
#	220713
#	232413
#	245238
#
# Disc length: 3404 seconds
#
# Revision: 0
# Processed by: cddbd v1.5.2PL0 Copyright (c) Steve Scherf et al.
# Submitted via: dBpowerAMP V4.0
#
DISCID=430d4a16
DTITLE=Elvis Presl - Elvis in Love
DYEAR=1900
DGENRE=Blues
TTITLE0=AreULonesomeTonight
TTITLE1=ItsNowOrNever
TTITLE2=All Shook Up
TTITLE3=Teddy Bear
TTITLE4=LöveMe
TTITLE5=OneNight
TTITLE6=Youre So Square
TTITLE7=Surrender
TTITLE8=Fever
TTITLE9=TheGirlOfMyBestFriend
TTITLE10=TryingToGetToYou
TTITLE11=I was the One
TTITLE12=Love me Tender
TTITLE13=Treat me Nice
TTITLE14=Like a Baby
TTITLE15=Stuck You
TTITLE16=Such a Night
TTITLE17=IwantUIneedUIloveU
TTITLE18=Playing4Keeps
TTITLE19=My Wish came True
TTITLE20=Dont
TTITLE21=Loving You
EXTD=
EXTT0=
EXTT1=
EXTT2=
EXTT3=
EXTT4=
EXTT5=
EXTT6=
EXTT7=
EXTT8=
EXTT9=
EXTT10=
EXTT11=
EXTT12=
EXTT13=
EXTT14=
EXTT15=
EXTT16=
EXTT17=
EXTT18=
EXTT19=
EXTT20=
EXTT21=
PLAYORDER=
